<?xml version="1.0" encoding="UTF-8" standalone="no"?>
<!-- Created with Inkscape (http://www.inkscape.org/) -->

<svg
   xmlns:dc="http://purl.org/dc/elements/1.1/"
   xmlns:cc="http://creativecommons.org/ns#"
   xmlns:rdf="http://www.w3.org/1999/02/22-rdf-syntax-ns#"
   xmlns:svg="http://www.w3.org/2000/svg"
   xmlns="http://www.w3.org/2000/svg"
   xmlns:sodipodi="http://sodipodi.sourceforge.net/DTD/sodipodi-0.dtd"
   xmlns:inkscape="http://www.inkscape.org/namespaces/inkscape"
   width="637.71619"
   height="188.84154"
   id="svg2"
   version="1.1"
   inkscape:version="0.48.3.1 r9886"
   sodipodi:docname="flow.svg">
  <defs
     id="defs4">
    <marker
       inkscape:stockid="Arrow2Mstart"
       orient="auto"
       refY="0.0"
       refX="0.0"
       id="Arrow2Mstart"
       style="overflow:visible">
      <path
         id="path3853"
         style="fill-rule:evenodd;stroke-width:0.62500000;stroke-linejoin:round"
         d="M 8.7185878,4.0337352 L -2.2072895,0.016013256 L 8.7185884,-4.0017078 C 6.9730900,-1.6296469 6.9831476,1.6157441 8.7185878,4.0337352 z "
         transform="scale(0.6) translate(0,0)" />
    </marker>
    <marker
       inkscape:stockid="Arrow2Mend"
       orient="auto"
       refY="0"
       refX="0"
       id="Arrow2Mend"
       style="overflow:visible">
      <path
         id="path4198"
         style="fill-rule:evenodd;stroke-width:0.625;stroke-linejoin:round"
         d="M 8.7185878,4.0337352 -2.2072895,0.01601326 8.7185884,-4.0017078 c -1.7454984,2.3720609 -1.7354408,5.6174519 -6e-7,8.035443 z"
         transform="scale(-0.6,-0.6)"
         inkscape:connector-curvature="0" />
    </marker>
    <marker
       inkscape:stockid="Arrow1Send"
       orient="auto"
       refY="0"
       refX="0"
       id="Arrow1Send"
       style="overflow:visible">
      <path
         id="path4186"
         d="M 0,0 5,-5 -12.5,0 5,5 0,0 z"
         style="fill-rule:evenodd;stroke:#000000;stroke-width:1pt"
         transform="matrix(-0.2,0,0,-0.2,-1.2,0)"
         inkscape:connector-curvature="0" />
    </marker>
    <marker
       inkscape:stockid="Arrow1Lend"
       orient="auto"
       refY="0"
       refX="0"
       id="Arrow1Lend"
       style="overflow:visible">
      <path
         id="path4174"
         d="M 0,0 5,-5 -12.5,0 5,5 0,0 z"
         style="fill-rule:evenodd;stroke:#000000;stroke-width:1pt"
         transform="matrix(-0.8,0,0,-0.8,-10,0)"
         inkscape:connector-curvature="0" />
    </marker>
    <filter
       id="filter5112"
       style="color-interpolation-filters:sRGB;"
       inkscape:label="Drop Shadow">
      <feFlood
         id="feFlood5114"
         flood-opacity="0.2"
         flood-color="rgb(0,0,0)"
         result="flood" />
      <feComposite
         id="feComposite5116"
         in2="SourceGraphic"
         in="flood"
         operator="in"
         result="composite1" />
      <feGaussianBlur
         id="feGaussianBlur5118"
         in="composite"
         stdDeviation="2.7"
         result="blur" />
      <feOffset
         id="feOffset5120"
         dx="4"
         dy="4"
         result="offset" />
      <feComposite
         id="feComposite5122"
         in2="offset"
         in="SourceGraphic"
         operator="over"
         result="composite2" />
    </filter>
    <filter
       id="filter5124"
       style="color-interpolation-filters:sRGB;"
       inkscape:label="Drop Shadow">
      <feFlood
         id="feFlood5126"
         flood-opacity="0.2"
         flood-color="rgb(0,0,0)"
         result="flood" />
      <feComposite
         id="feComposite5128"
         in2="SourceGraphic"
         in="flood"
         operator="in"
         result="composite1" />
      <feGaussianBlur
         id="feGaussianBlur5130"
         in="composite"
         stdDeviation="2.7"
         result="blur" />
      <feOffset
         id="feOffset5132"
         dx="4"
         dy="4"
         result="offset" />
      <feComposite
         id="feComposite5134"
         in2="offset"
         in="SourceGraphic"
         operator="over"
         result="composite2" />
    </filter>
    <filter
       id="filter5136"
       style="color-interpolation-filters:sRGB;"
       inkscape:label="Drop Shadow">
      <feFlood
         id="feFlood5138"
         flood-opacity="0.2"
         flood-color="rgb(0,0,0)"
         result="flood" />
      <feComposite
         id="feComposite5140"
         in2="SourceGraphic"
         in="flood"
         operator="in"
         result="composite1" />
      <feGaussianBlur
         id="feGaussianBlur5142"
         in="composite"
         stdDeviation="2.7"
         result="blur" />
      <feOffset
         id="feOffset5144"
         dx="4"
         dy="4"
         result="offset" />
      <feComposite
         id="feComposite5146"
         in2="offset"
         in="SourceGraphic"
         operator="over"
         result="composite2" />
    </filter>
  </defs>
  <sodipodi:namedview
     id="base"
     pagecolor="#ffffff"
     bordercolor="#666666"
     borderopacity="1.0"
     inkscape:pageopacity="0.0"
     inkscape:pageshadow="2"
     inkscape:zoom="1.979899"
     inkscape:cx="272.48344"
     inkscape:cy="103.39376"
     inkscape:document-units="px"
     inkscape:current-layer="layer1"
     showgrid="false"
     inkscape:window-width="1919"
     inkscape:window-height="1027"
     inkscape:window-x="1"
     inkscape:window-y="24"
     inkscape:window-maximized="1"
     fit-margin-top="15"
     fit-margin-left="15"
     fit-margin-right="15"
     fit-margin-bottom="15" />
  <metadata
     id="metadata7">
    <rdf:RDF>
      <cc:Work
         rdf:about="">
        <dc:format>image/svg+xml</dc:format>
        <dc:type
           rdf:resource="http://purl.org/dc/dcmitype/StillImage" />
        <dc:title />
      </cc:Work>
    </rdf:RDF>
  </metadata>
  <g
     inkscape:label="Layer 1"
     inkscape:groupmode="layer"
     id="layer1"
     transform="translate(-92.93924,-178.20204)">
    <path
       style="fill:#000000;fill-opacity:1;stroke:none"
       d="m 631.22495,293.96482 -434,0 27.59645,16.71428 0,-13.23966 406.40355,0 z"
       id="path3041-0"
       inkscape:connector-curvature="0"
       sodipodi:nodetypes="cccccc" />
    <text
       xml:space="preserve"
       style="font-size:16px;font-style:normal;font-variant:normal;font-weight:bold;font-stretch:normal;text-align:end;line-height:125%;letter-spacing:0px;word-spacing:0px;writing-mode:lr-tb;text-anchor:end;fill:#99cc66;fill-opacity:1;stroke:none;font-family:Open Sans;-inkscape-font-specification:Open Sans Bold"
       id="text4985-49-9"
       sodipodi:linespacing="125%"
       x="629.84149"
       y="311.10089"><tspan
         style="font-size:16px;font-style:normal;font-variant:normal;font-weight:bold;font-stretch:normal;text-align:end;line-height:125%;writing-mode:lr-tb;text-anchor:end;fill:#99cc66;fill-opacity:1;stroke:none;font-family:Open Sans;-inkscape-font-specification:Open Sans Bold"
         id="tspan4987-3-2">Down</tspan></text>
    <text
       xml:space="preserve"
       style="font-size:16px;font-style:normal;font-variant:normal;font-weight:bold;font-stretch:normal;text-align:start;line-height:125%;letter-spacing:0px;word-spacing:0px;writing-mode:lr-tb;text-anchor:start;fill:#5882e5;fill-opacity:1;stroke:none;font-family:Open Sans;-inkscape-font-specification:Open Sans Bold"
       id="text4985-0-8"
       sodipodi:linespacing="125%"
       x="360.61823"
       y="310.22345"><tspan
         style="font-size:16px;font-style:normal;font-variant:normal;font-weight:bold;font-stretch:normal;text-align:end;line-height:125%;writing-mode:lr-tb;text-anchor:end;fill:#5882e5;fill-opacity:1;stroke:none;font-family:Open Sans;-inkscape-font-specification:Open Sans Bold"
         id="tspan4987-7-8">Out</tspan></text>
    <text
       xml:space="preserve"
       style="font-size:16px;font-style:normal;font-variant:normal;font-weight:bold;font-stretch:normal;text-align:start;line-height:125%;letter-spacing:0px;word-spacing:0px;writing-mode:lr-tb;text-anchor:start;fill:#5882e5;fill-opacity:1;stroke:none;font-family:Open Sans;-inkscape-font-specification:Open Sans Bold"
       id="text4985-49-5"
       sodipodi:linespacing="125%"
       x="461.92584"
       y="310.51505"><tspan
         style="font-size:16px;font-style:normal;font-variant:normal;font-weight:bold;font-stretch:normal;text-align:start;line-height:125%;writing-mode:lr-tb;text-anchor:start;fill:#5882e5;fill-opacity:1;stroke:none;font-family:Open Sans;-inkscape-font-specification:Open Sans Bold"
         id="tspan4987-3-6">In</tspan></text>
    <path
       style="fill:#7c7c7c;fill-opacity:1;filter:url(#filter5136)"
       d="m 137.35777,287.91488 -7.73327,7.73327 h 36.91458 l -7.73326,-7.73327 h -21.44805 z m 50.86658,-4.57136 h -80.28511 v -57.34354 h 80.28511 v 57.34354 z m -7.7335,-7.73326 v -41.87701 l -64.81834,4.7e-4 0,41.87654 h 64.81787 z m -72.55161,24.65776 v 16.16872 h 80.28511 v -16.16872 h -80.28511 z m 40.14255,9.98996 c -1.05258,0 -1.9056,-0.85301 -1.9056,-1.9056 0,-1.05258 0.85302,-1.9056 1.9056,-1.9056 1.05259,0 1.9056,0.85302 1.9056,1.9056 0,1.05259 -0.85301,1.9056 -1.9056,1.9056 z m 33.35077,-0.17323 h -24.6379 v -3.46473 h 24.6379 v 3.46473 z"
       id="computer-5-icon"
       inkscape:connector-curvature="0" />
    <text
       xml:space="preserve"
       style="font-size:23.50856209000000163px;font-style:normal;font-weight:normal;line-height:125%;letter-spacing:0px;word-spacing:0px;fill:#7c7c7c;fill-opacity:1;stroke:none;font-family:Sans"
       x="113.33549"
       y="349.7121"
       id="text3184"
       sodipodi:linespacing="125%"><tspan
         sodipodi:role="line"
         id="tspan3186"
         x="113.33549"
         y="349.7121"
         style="font-style:normal;font-variant:normal;font-weight:bold;font-stretch:normal;font-family:Open Sans;-inkscape-font-specification:Open Sans Bold;fill:#7c7c7c;fill-opacity:1">Client</tspan></text>
    <text
       xml:space="preserve"
       style="font-size:23.50856209000000163px;font-style:normal;font-weight:normal;line-height:125%;letter-spacing:0px;word-spacing:0px;fill:#7c7c7c;fill-opacity:1;stroke:none;font-family:Sans"
       x="381.0466"
       y="349.7121"
       id="text3188"
       sodipodi:linespacing="125%"><tspan
         sodipodi:role="line"
         id="tspan3190"
         x="381.0466"
         y="349.7121"
         style="font-style:normal;font-variant:normal;font-weight:bold;font-stretch:normal;font-family:Open Sans;-inkscape-font-specification:Open Sans Bold;fill:#7c7c7c;fill-opacity:1">Haka</tspan></text>
    <path
       style="fill:#7c7c7c;fill-opacity:1;filter:url(#filter5112)"
       d="m 715.65522,247.57461 h -80.62557 v 20.20813 h 80.6258 v -20.20813 z m -75.26333,14.53591 3.54557,-8.86392 h 4.28264 l -3.54558,8.86392 h -4.28263 z m 6.94193,0 3.54511,-8.86392 h 4.28263 l -3.54557,8.86392 h -4.28217 z m 6.94123,0 3.54511,-8.86392 h 4.28263 l -3.54557,8.86392 h -4.28217 z m 6.9417,0 3.5451,-8.86392 h 4.28218 l -3.54465,8.86392 h -4.28263 z m 11.22386,0 h -4.28217 l 3.54557,-8.86392 h 4.28264 l -3.54604,8.86392 z m 33.64204,-1.47182 c -1.63397,0 -2.95981,-1.3256 -2.95981,-2.96026 0,-1.63466 1.32584,-2.95979 2.95981,-2.95979 1.63535,0 2.96072,1.32513 2.96072,2.95979 0,1.63466 -1.32537,2.96026 -2.96072,2.96026 z m 5.12756,-18.38175 h -71.56277 l 14.11275,-18.62083 h 43.1638 l 14.28622,18.62083 z m 4.44501,30.84298 h -80.62557 v 20.2086 h 80.6258 v -20.2086 z m -75.26333,14.53661 3.54557,-8.86392 h 4.28264 l -3.54558,8.86392 h -4.28263 z m 6.94193,0 3.54511,-8.86392 h 4.28263 l -3.54557,8.86392 h -4.28217 z m 6.94123,0 3.54511,-8.86392 h 4.28263 l -3.54557,8.86392 h -4.28217 z m 6.9417,0 3.5451,-8.86392 h 4.28218 l -3.54465,8.86392 h -4.28263 z m 11.22386,0 h -4.28217 l 3.54557,-8.86392 h 4.28264 l -3.54604,8.86392 z m 33.64204,-1.47205 c -1.63397,0 -2.95981,-1.32491 -2.95981,-2.95979 0,-1.63535 1.32584,-2.9598 2.95981,-2.9598 1.63535,0 2.96072,1.32445 2.96072,2.9598 0,1.63488 -1.32537,2.95979 -2.96072,2.95979 z m 9.57257,12.42752 h -80.62557 v 20.20859 h 80.6258 v -20.20859 z m -75.26333,14.53638 3.54557,-8.86393 h 4.28264 l -3.54558,8.86393 h -4.28263 z m 6.94193,0 3.54511,-8.86393 h 4.28263 l -3.54557,8.86393 h -4.28217 z m 6.94123,0 3.54511,-8.86393 h 4.28263 l -3.54557,8.86393 h -4.28217 z m 6.9417,0 3.5451,-8.86393 h 4.28218 l -3.54465,8.86393 h -4.28263 z m 11.22386,0 h -4.28217 l 3.54557,-8.86393 h 4.28264 l -3.54604,8.86393 z m 33.64204,-1.47251 c -1.63397,0 -2.95981,-1.32445 -2.95981,-2.95934 0,-1.63535 1.32584,-2.9598 2.95981,-2.9598 1.63535,0 2.96072,1.32445 2.96072,2.9598 0,1.63489 -1.32537,2.95934 -2.96072,2.95934 z"
       id="server-4-icon"
       inkscape:connector-curvature="0" />
    <text
       xml:space="preserve"
       style="font-size:23.50856209000000163px;font-style:normal;font-weight:normal;line-height:125%;letter-spacing:0px;word-spacing:0px;fill:#7c7c7c;fill-opacity:1;stroke:none;font-family:Sans"
       x="637.29608"
       y="349.50546"
       id="text3192"
       sodipodi:linespacing="125%"><tspan
         sodipodi:role="line"
         id="tspan3194"
         x="637.29608"
         y="349.50546"
         style="font-style:normal;font-variant:normal;font-weight:bold;font-stretch:normal;font-family:Open Sans;-inkscape-font-specification:Open Sans Bold;fill:#7c7c7c;fill-opacity:1">Server</tspan></text>
    <path
       style="fill:#000000;fill-opacity:1;stroke:none"
       d="m 197.22495,279.90072 434,0 -27.59645,-16.71428 0,13.23966 -406.40355,0 z"
       id="path3041"
       inkscape:connector-curvature="0"
       sodipodi:nodetypes="cccccc" />
    <text
       xml:space="preserve"
       style="font-size:16px;font-style:normal;font-variant:normal;font-weight:bold;font-stretch:normal;text-align:start;line-height:125%;letter-spacing:0px;word-spacing:0px;writing-mode:lr-tb;text-anchor:start;fill:#99cc66;fill-opacity:1;stroke:none;font-family:Open Sans;-inkscape-font-specification:Open Sans Bold"
       id="text4985"
       sodipodi:linespacing="125%"
       x="196.17871"
       y="274.63437"><tspan
   style="font-size:16px;font-style:normal;font-variant:normal;font-weight:bold;font-stretch:normal;text-align:start;line-height:125%;writing-mode:lr-tb;text-anchor:start;fill:#99cc66;fill-opacity:1;stroke:none;font-family:Open Sans;-inkscape-font-specification:Open Sans Bold"
   id="tspan4987">Up</tspan></text>
    <text
       xml:space="preserve"
       style="font-size:16px;font-style:normal;font-variant:normal;font-weight:bold;font-stretch:normal;text-align:start;line-height:125%;letter-spacing:0px;word-spacing:0px;writing-mode:lr-tb;text-anchor:start;fill:#5882e5;fill-opacity:1;stroke:none;font-family:Open Sans;-inkscape-font-specification:Open Sans Bold"
       id="text4985-0"
       sodipodi:linespacing="125%"
       x="360.91437"
       y="274.34277"><tspan
         style="font-size:16px;font-style:normal;font-variant:normal;font-weight:bold;font-stretch:normal;text-align:end;line-height:125%;writing-mode:lr-tb;text-anchor:end;fill:#5882e5;fill-opacity:1;stroke:none;font-family:Open Sans;-inkscape-font-specification:Open Sans Bold"
         id="tspan4987-7">In</tspan></text>
    <text
       xml:space="preserve"
       style="font-size:16px;font-style:normal;font-variant:normal;font-weight:bold;font-stretch:normal;text-align:start;line-height:125%;letter-spacing:0px;word-spacing:0px;writing-mode:lr-tb;text-anchor:start;fill:#5882e5;fill-opacity:1;stroke:none;font-family:Open Sans;-inkscape-font-specification:Open Sans Bold"
       id="text4985-49"
       sodipodi:linespacing="125%"
       x="462.22198"
       y="274.63437"><tspan
         style="font-size:16px;font-style:normal;font-variant:normal;font-weight:bold;font-stretch:normal;text-align:start;line-height:125%;writing-mode:lr-tb;text-anchor:start;fill:#5882e5;fill-opacity:1;stroke:none;font-family:Open Sans;-inkscape-font-specification:Open Sans Bold"
         id="tspan4987-3">Out</tspan></text>
    <g
       id="g3906"
       transform="translate(0,-9.69794)" />
    <path
       style="fill:#7c7c7c;fill-opacity:1;filter:url(#filter5124)"
       d="m 391.70824,284.18129 h -27.53419 v -11.53962 h 27.53396 v 11.53962 z m 33.77669,-11.61653 h -27.53418 v 11.53984 h 27.53418 v -11.53984 z m 33.76539,0.0769 h -27.5342 v 11.53962 h 27.53397 v -11.53962 z m -67.54208,34.61932 h -27.53419 v 11.53962 h 27.53396 v -11.53962 z m 33.54571,-0.0769 h -27.3032 v 11.53985 h 27.3032 v -11.53985 z m 33.99637,0.0769 h -27.5342 v 11.53962 h 27.53397 V 307.26099 z M 408.55605,289.95145 H 381.0221 v 11.53962 h 27.53395 v -11.53962 z m 34.00744,-0.0769 h -27.53394 v 11.53985 h 27.53394 v -11.53985 z m 16.68683,0.0769 h -10.45518 v 11.53962 h 10.45518 v -11.53962 z m -84.6211,0 h -10.45517 v 11.53962 h 10.45517 v -11.53962 z m 67.94305,-44.27805 c 0.12034,5.34884 -2.41538,9.26907 -5.38881,10.80463 -9.03461,-3.22335 3.91237,-24.11011 -20.71074,-31.34423 4.9437,7.23412 3.90775,19.00449 -4.03271,22.97229 -8.45902,-4.54456 1.55312,-21.46952 -23.61904,-24.46997 11.76182,12.62338 -6.84145,20.53959 0.23975,31.87941 -3.89619,-0.76039 -7.06827,-6.41482 -5.29456,-12.51644 -8.95955,6.33237 -8.01137,18.43558 -2.33014,23.64191 h 17.64816 c -3.59408,-4.95548 6.37579,-8.45393 -0.0277,-14.00188 13.83489,1.33114 8.33244,8.8399 12.98118,10.85614 4.36371,-1.76031 6.18477,-6.2402 3.51069,-10.65334 9.36377,2.086 10.33459,10.27915 7.72172,13.79885 h 18.32332 c 6.48111,-5.72304 5.83991,-14.6558 0.9789,-20.96737 z"
       id="firewall-2-icon"
       inkscape:connector-curvature="0" />
  </g>
</svg>
